<?xml version="1.0" standalone="no"?>
<!DOCTYPE svg PUBLIC "-//W3C//DTD SVG 20010904//EN"
 "http://www.w3.org/TR/2001/REC-SVG-20010904/DTD/svg10.dtd">
<svg version="1.0" xmlns="http://www.w3.org/2000/svg"
 width="296.969837pt" height="297.409896pt" viewBox="0 0 296.969837 297.409896"
 preserveAspectRatio="xMidYMid meet">
<metadata>
Created by potrace 1.12, written by Peter Selinger 2001-2015
</metadata>
<g transform="translate(-12.474641,317.565371) scale(0.100000,-0.100000)"
fill="#000000" stroke="none">
<path d="M1450 3170 c-185 -23 -344 -71 -512 -157 -145 -73 -262 -159 -377
-273 -501 -500 -580 -1281 -188 -1873 181 -274 459 -488 767 -590 144 -48 250
-67 410 -74 724 -31 1349 448 1518 1161 24 101 26 129 26 321 1 179 -3 224
-21 305 -68 302 -193 531 -408 746 -180 180 -350 286 -584 364 -64 22 -156 46
-206 55 -111 19 -325 27 -425 15z m355 -964 c48 -20 69 -56 63 -111 -6 -49
-16 -70 -221 -450 -80 -148 -144 -271 -142 -273 2 -2 29 3 59 12 78 23 148 95
205 209 28 57 65 111 107 156 77 83 119 111 167 111 30 0 42 -8 81 -51 62 -69
67 -102 28 -182 -39 -79 -75 -115 -96 -98 -8 7 -20 28 -26 47 -10 31 -8 41 20
100 18 36 30 67 27 70 -20 21 -161 -137 -209 -233 -85 -173 -19 -242 150 -157
86 43 185 136 214 202 30 68 98 170 147 220 91 93 156 106 234 47 74 -56 81
-106 29 -210 -49 -98 -112 -157 -195 -184 -33 -11 -42 -10 -78 9 -23 11 -44
19 -46 16 -3 -2 -6 -28 -6 -56 -2 -41 2 -55 18 -67 29 -21 102 -12 172 23 56
28 178 138 221 199 17 25 24 28 39 19 27 -17 29 -77 3 -119 -11 -18 -47 -57
-78 -86 -120 -110 -274 -149 -379 -96 -28 15 -62 40 -77 57 l-26 32 -55 -37
c-120 -79 -242 -96 -336 -47 -30 15 -63 42 -75 59 l-21 31 -31 -24 c-49 -39
-102 -58 -177 -64 l-70 -5 -28 -52 c-34 -64 -61 -70 -102 -21 -26 31 -29 57
-11 100 6 13 -11 27 -79 67 -48 28 -88 51 -90 51 -2 0 -34 -32 -72 -71 -138
-144 -251 -209 -361 -209 -104 0 -196 65 -218 153 -20 84 66 201 194 264 74
37 79 38 181 37 78 -1 121 -6 162 -21 l56 -19 229 254 c224 250 349 371 409
398 39 17 48 17 90 0z"/>
<path d="M1579 1912 c-63 -65 -176 -186 -251 -269 -157 -172 -153 -150 -32
-211 l61 -31 143 262 c79 144 157 286 173 315 16 28 27 52 24 52 -3 0 -56 -53
-118 -118z"/>
<path d="M2496 1708 c-58 -59 -136 -169 -136 -192 0 -30 31 -15 90 44 83 83
147 200 109 200 -6 0 -34 -24 -63 -52z"/>
<path d="M813 1500 c-65 -23 -100 -48 -151 -105 -49 -56 -68 -119 -46 -152 18
-29 36 -29 103 2 64 30 152 99 239 188 l63 64 -39 11 c-55 17 -109 14 -169 -8z"/>
</g>
</svg>
